<svg xmlns="http://www.w3.org/2000/svg" viewBox="0 0 984 540">
  <g transform="translate(225.84998 123) scale(1 1)">
    <path d="M510.46301 0l15 12c5.625 5.25 4.875 16.125 1.125 25.5-8.25 21.375-49.125 121.5-61.125 159-5.25 15.375-16.125 18.75-22.875 18l-28.5-3.75 2.625 3.75 0 18.75-0.75 26.25 0 10.875c0 17.625-3.75 20.625-14.25 26.625-12 6.375-58.125 26.25-83.25 39.375-25.125 13.125-55.5 29.62497-66.74998 34.875-11.25 5.25006-20.625 5.25-33.75 0.75-20.625-8.99997-147-63.75-207.375-95.625-5.25-2.625-10.125-7.875-10.125-19.5l0-46.125c-1.125-12-0.75-15.375 7.5-18.75l93.75-34.875 0-6.75 408.74998-150.375z" fill="currentColor"/>
  </g>
  <g transform="translate(227.438 328.875) scale(1 1)">
    <path d="M0 0c3 2.625 6 3.375 10.125 5.25 27.75 13.5 98.625 40.875 121.875 51 23.25 10.125 65.625 29.25 84.375 39m3 1.875c8.25 3 19.5 4.5 36-2.625 24.75-10.125 48-21 72.75-31.125 24.75-10.125 66-30.75 76.5-36.375 2.25-0.75 5.25-3.75 6.375-9" fill="none" stroke="var(--color-surface)" stroke-width="1.5" stroke-linecap="round" stroke-linejoin="round" vector-effect="non-scaling-stroke"/>
  </g>
  <g transform="translate(228.26799 281.25) scale(1 1)">
    <path d="M5.54485 46.875c-8.25-4.125-7.125-9.375 2.25-12.375l89.625-34.5" fill="none" stroke="var(--color-surface)" stroke-width="1.5" stroke-linecap="round" stroke-linejoin="round" vector-effect="non-scaling-stroke"/>
  </g>
  <g transform="translate(429.188 62.25) scale(1 1)">
    <path d="M140.25 243.375c13.125 3.75 48.375 16.5 66.375 22.125 9 3 15.75 5.25 25.5-7.125 7.875-15 44.625-103.125 72.375-178.125 3.375-13.875 4.125-20.99999-5.25-26.25l-84-20.625-145.125-33.375c-6.75 0-14.625 1.5-18 10.5-6.75 17.25-31.875 73.5-52.125 128.25" fill="none" stroke="var(--color-surface)" stroke-width="1.5" stroke-linecap="round" stroke-linejoin="round" vector-effect="non-scaling-stroke"/>
  </g>
  <g transform="translate(430.313 64.251) scale(1 1)">
    <path d="M221.25 267.62445c10.125-2.625 12-10.875 16.875-20.625l66-174c2.625-11.625 1.875-18.75-8.625-21l-95.25-22.125-129.75-29.625c-6.75-1.125-15 1.5-18 9l-52.5 127.5" fill="none" stroke="var(--color-surface)" stroke-width="1.5" stroke-linecap="round" stroke-linejoin="round" vector-effect="non-scaling-stroke"/>
  </g>
  <g transform="translate(540.563 70.167) scale(1 0.99998)">
    <path d="M0 0.33307c3-1.125 13.875 0.75 16.875 3.375" fill="none" stroke="var(--color-xiaohei-code-navy)" stroke-width="2.25" stroke-linecap="round" stroke-linejoin="round" vector-effect="non-scaling-stroke"/>
  </g>
  <g transform="translate(461.438 434.625) scale(1.407 1)">
    <path d="M0 0l0 38.25" fill="none" stroke="var(--color-surface)" stroke-width="1.407" stroke-linecap="round" stroke-linejoin="round" vector-effect="non-scaling-stroke"/>
  </g>
  <g transform="translate(225.563 369.375) scale(1 1)">
    <path d="M0 0c9.75 7.125 11.625 11.625 14.25 31.5" fill="none" stroke="var(--color-xiaohei-code-navy)" stroke-width="2.25" stroke-linecap="round" stroke-linejoin="round" vector-effect="non-scaling-stroke"/>
  </g>
  <g transform="translate(623.813 388.5) scale(1 1)">
    <path d="M16.5 0c-10.875 9-14.25 14.625-16.5 31.5" fill="none" stroke="var(--color-xiaohei-code-navy)" stroke-width="2.25" stroke-linecap="round" stroke-linejoin="round" vector-effect="non-scaling-stroke"/>
  </g>
  <g transform="translate(435.188 475.875) scale(1 1)">
    <path d="M0 13.12497l0.375-7.12497c0.375-3 3.375-5.625 9-4.875 10.5 1.5 14.25 2.625 24 1.125l9-2.25c4.875 0 8.25 0.75 8.25 7.875l-0.375 5.24997" fill="none" stroke="var(--color-xiaohei-code-navy)" stroke-width="2.089" stroke-linecap="round" stroke-linejoin="round" vector-effect="non-scaling-stroke"/>
  </g>
  <g transform="translate(247.688 316.125) scale(1 1)">
    <path d="M0 8.625l23.625-8.625 23.625 6-12.375 4.125-10.5 4.125-24.375-5.625z" fill="none" stroke="var(--color-surface)" stroke-width="1.5" stroke-linecap="round" stroke-linejoin="round" vector-effect="non-scaling-stroke"/>
  </g>
  <g transform="translate(283.30499 304.125) scale(1.00001 1)">
    <path d="M0.00748 11.625l0-5.25003c-0.375-1.87497 13.5-6.37497 13.5-6.37497l28.875 9" fill="none" stroke="var(--color-surface)" stroke-width="1.5" stroke-linecap="round" stroke-linejoin="round" vector-effect="non-scaling-stroke"/>
  </g>
  <g transform="translate(299.438 292.125) scale(1 1)">
    <path d="M0 6l15-6 12.375 2.25" fill="none" stroke="var(--color-surface)" stroke-width="1.5" stroke-linecap="round" stroke-linejoin="round" vector-effect="non-scaling-stroke"/>
  </g>
  <g transform="translate(302.813 298.5) scale(1 1)">
    <path d="M0 0l18 3.75 1.5 6.375" fill="none" stroke="var(--color-surface)" stroke-width="1.5" stroke-linecap="round" stroke-linejoin="round" vector-effect="non-scaling-stroke"/>
  </g>
  <g transform="translate(288.188 311.25) scale(1 1)">
    <path d="M0 0l31.5 9 0.75 11.625" fill="none" stroke="var(--color-surface)" stroke-width="1.5" stroke-linecap="round" stroke-linejoin="round" vector-effect="non-scaling-stroke"/>
  </g>
  <g transform="translate(247.313 325.5) scale(1.5 1)">
    <path d="M0 0l0 5.25" fill="none" stroke="var(--color-surface)" stroke-width="1.5" stroke-linecap="round" stroke-linejoin="round" vector-effect="non-scaling-stroke"/>
  </g>
  <g transform="translate(272.063 331.5) scale(1.5 1)">
    <path d="M0 0l0.375 9.375" fill="none" stroke="var(--color-surface)" stroke-width="1.5" stroke-linecap="round" stroke-linejoin="round" vector-effect="non-scaling-stroke"/>
  </g>
  <g transform="translate(282.938 327) scale(1.5 1)">
    <path d="M0 0l0 7.875" fill="none" stroke="var(--color-surface)" stroke-width="1.5" stroke-linecap="round" stroke-linejoin="round" vector-effect="non-scaling-stroke"/>
  </g>
  <g transform="translate(297.938 324.375) scale(1.5 1)">
    <path d="M0 0l0.375 12" fill="none" stroke="var(--color-surface)" stroke-width="1.5" stroke-linecap="round" stroke-linejoin="round" vector-effect="non-scaling-stroke"/>
  </g>
  <g transform="translate(261.563 319.875) scale(1 1)">
    <path d="M0 0l20.625 6.375" fill="none" stroke="var(--color-surface)" stroke-width="1.5" stroke-linecap="round" stroke-linejoin="round" vector-effect="non-scaling-stroke"/>
  </g>
  <g transform="translate(300.188 297.375) scale(1.33333 1)">
    <path d="M1.125 0l-1.125 2.25" fill="none" stroke="var(--color-surface)" stroke-width="1.5" stroke-linecap="round" stroke-linejoin="round" vector-effect="non-scaling-stroke"/>
  </g>
  <g transform="translate(312.563 293.625) scale(1 1)">
    <path d="M0 0l13.5 4.125" fill="none" stroke="var(--color-surface)" stroke-width="1.5" stroke-linecap="round" stroke-linejoin="round" vector-effect="non-scaling-stroke"/>
  </g>
  <g transform="translate(321.188 300.375) scale(1 1)">
    <path d="M0 1.5l4.5-1.5" fill="none" stroke="var(--color-surface)" stroke-width="1.5" stroke-linecap="round" stroke-linejoin="round" vector-effect="non-scaling-stroke"/>
  </g>
  <g transform="translate(294.938 333.75) scale(1 1)">
    <path d="M0 7.125l22.875-7.125 28.875 11.625-11.625 4.125-11.25 3-28.875-11.25" fill="none" stroke="var(--color-surface)" stroke-width="1.5" stroke-linecap="round" stroke-linejoin="round" vector-effect="non-scaling-stroke"/>
  </g>
  <g transform="translate(334.688 317.625) scale(1 1)">
    <path d="M16.5 23.625c-1.5 0-16.5-13.125-16.5-13.125l3.75-10.5 21.375 0" fill="none" stroke="currentColor" stroke-width="1.5" stroke-linecap="round" stroke-linejoin="round" vector-effect="non-scaling-stroke"/>
  </g>
  <g transform="translate(339.563 319.125) scale(1 1)">
    <path d="M0 0l15.75 12.375" fill="none" stroke="var(--color-surface)" stroke-width="1.5" stroke-linecap="round" stroke-linejoin="round" vector-effect="non-scaling-stroke"/>
  </g>
  <g transform="translate(335.813 319.125) scale(1 1)">
    <path d="M0 7.875l3-7.875" fill="none" stroke="var(--color-surface)" stroke-width="1.5" stroke-linecap="round" stroke-linejoin="round" vector-effect="non-scaling-stroke"/>
  </g>
  <g transform="translate(306.938 338.25) scale(1 1)">
    <path d="M0 0l28.5 11.25 0 7.5" fill="none" stroke="var(--color-surface)" stroke-width="1.5" stroke-linecap="round" stroke-linejoin="round" vector-effect="non-scaling-stroke"/>
  </g>
  <g transform="translate(323.813 354.375) scale(1.5 1)">
    <path d="M0 0l0 7.125" fill="none" stroke="var(--color-surface)" stroke-width="1.5" stroke-linecap="round" stroke-linejoin="round" vector-effect="non-scaling-stroke"/>
  </g>
  <g transform="translate(323.813 350.625) scale(1 1)">
    <path d="M0 1.5l10.125-1.5" fill="none" stroke="var(--color-surface)" stroke-width="1.5" stroke-linecap="round" stroke-linejoin="round" vector-effect="non-scaling-stroke"/>
  </g>
  <g transform="translate(292.688 343.125) scale(1.5 1)">
    <path d="M0 0l0 5.625" fill="none" stroke="var(--color-surface)" stroke-width="1.5" stroke-linecap="round" stroke-linejoin="round" vector-effect="non-scaling-stroke"/>
  </g>
  <g transform="translate(336.563 356.25) scale(1 1)">
    <path d="M0 10.125l27.375-10.125 21.375 9" fill="none" stroke="var(--color-surface)" stroke-width="1.5" stroke-linecap="round" stroke-linejoin="round" vector-effect="non-scaling-stroke"/>
  </g>
  <g transform="translate(344.813 360.75) scale(1 1)">
    <path d="M0 10.125l29.625-10.125" fill="none" stroke="var(--color-surface)" stroke-width="1.5" stroke-linecap="round" stroke-linejoin="round" vector-effect="non-scaling-stroke"/>
  </g>
  <g transform="translate(360.563 368.25) scale(1 1)">
    <path d="M0 9.75l23.625-9.75" fill="none" stroke="var(--color-surface)" stroke-width="1.5" stroke-linecap="round" stroke-linejoin="round" vector-effect="non-scaling-stroke"/>
  </g>
  <g transform="translate(326.813 266.625) scale(1 1)">
    <path d="M0 68.625l0-60 24-8.625" fill="none" stroke="var(--color-xiaohei-code-navy)" stroke-width="2.089" stroke-linecap="round" stroke-linejoin="round" vector-effect="non-scaling-stroke"/>
  </g>
  <g transform="translate(362.438 200.25) scale(1.5 1)">
    <path d="M0 0l0.375 88.125" fill="none" stroke="var(--color-surface)" stroke-width="1.5" stroke-linecap="round" stroke-linejoin="round" vector-effect="non-scaling-stroke"/>
  </g>
  <g transform="translate(382.688 186.75) scale(1.5 1)">
    <path d="M0 0l0.75 93 0 1.5" fill="none" stroke="var(--color-surface)" stroke-width="1.5" stroke-linecap="round" stroke-linejoin="round" vector-effect="non-scaling-stroke"/>
  </g>
  <g transform="translate(413.79199 202.875) scale(0.99999 1)">
    <path d="M0.02017 38.625c-0.375-9 4.5-14.625 13.125-38.625" fill="none" stroke="var(--color-surface)" stroke-width="1.5" stroke-linecap="round" stroke-linejoin="round" vector-effect="non-scaling-stroke"/>
  </g>
  <g transform="translate(426.938 257.25) scale(1 1)">
    <path d="M0 0l9 2.625" fill="none" stroke="var(--color-surface)" stroke-width="1.5" stroke-linecap="round" stroke-linejoin="round" vector-effect="non-scaling-stroke"/>
  </g>
  <g transform="translate(431.063 255.375) scale(1 1)">
    <path d="M0 0l7.5 1.875" fill="none" stroke="var(--color-surface)" stroke-width="1.5" stroke-linecap="round" stroke-linejoin="round" vector-effect="non-scaling-stroke"/>
  </g>
  <g transform="translate(407.813 173.08701) scale(1 1)">
    <path d="M0 71.78821c0-1.50001 0-68.62502 0-69.00002 0.75-4.875 4.5-1.875 6.375-1.875" fill="none" stroke="currentColor" stroke-width="1.5" stroke-linecap="round" stroke-linejoin="round" vector-effect="non-scaling-stroke"/>
  </g>
  <g transform="translate(427.688 172.125) scale(1.5 1)">
    <path d="M0 0l0 90.75" fill="none" stroke="var(--color-surface)" stroke-width="1.5" stroke-linecap="round" stroke-linejoin="round" vector-effect="non-scaling-stroke"/>
  </g>
  <g transform="translate(449.438 177.375) scale(1.5 1)">
    <path d="M0 0l0 76.125" fill="none" stroke="var(--color-surface)" stroke-width="1.5" stroke-linecap="round" stroke-linejoin="round" vector-effect="non-scaling-stroke"/>
  </g>
  <g transform="translate(472.313 190.875) scale(1.5 1)">
    <path d="M0 0l0 79.875" fill="none" stroke="var(--color-surface)" stroke-width="1.5" stroke-linecap="round" stroke-linejoin="round" vector-effect="non-scaling-stroke"/>
  </g>
  <g transform="translate(471.563 228.75) scale(1 1)">
    <path d="M0 0l31.875 7.125-12 6" fill="none" stroke="var(--color-surface)" stroke-width="1.407" stroke-linecap="round" stroke-linejoin="round" vector-effect="non-scaling-stroke"/>
  </g>
  <g transform="translate(452.813 231.375) scale(1 1)">
    <path d="M0 0l33.75 11.24999" fill="none" stroke="var(--color-surface)" stroke-width="1.407" stroke-linecap="round" stroke-linejoin="round" vector-effect="non-scaling-stroke"/>
  </g>
  <g transform="translate(451.688 226.125) scale(1 1)">
    <path d="M0 3l7.875-3" fill="none" stroke="var(--color-surface)" stroke-width="1.407" stroke-linecap="round" stroke-linejoin="round" vector-effect="non-scaling-stroke"/>
  </g>
  <g transform="translate(463.688 225.375) scale(1 1)">
    <path d="M0 0l7.875 1.875" fill="none" stroke="var(--color-surface)" stroke-width="1.407" stroke-linecap="round" stroke-linejoin="round" vector-effect="non-scaling-stroke"/>
  </g>
  <g transform="translate(504.563 239.25) scale(1.407 1)">
    <path d="M0 0l0 9.75" fill="none" stroke="var(--color-surface)" stroke-width="1.407" stroke-linecap="round" stroke-linejoin="round" vector-effect="non-scaling-stroke"/>
  </g>
  <g transform="translate(480.563 245.25) scale(1 1)">
    <path d="M7.5 0l-7.5 21.375" fill="none" stroke="var(--color-surface)" stroke-width="1.407" stroke-linecap="round" stroke-linejoin="round" vector-effect="non-scaling-stroke"/>
  </g>
  <g transform="translate(437.813 233.625) scale(1 1)">
    <path d="M8.625 0l-8.625 16.87502" fill="none" stroke="currentColor" stroke-width="1.5" stroke-linecap="round" stroke-linejoin="round" vector-effect="non-scaling-stroke"/>
  </g>
  <g transform="translate(437.813 253.125) scale(1 1)">
    <path d="M0 0l6 2.25" fill="none" stroke="var(--color-surface)" stroke-width="1.407" stroke-linecap="round" stroke-linejoin="round" vector-effect="non-scaling-stroke"/>
  </g>
  <g transform="translate(359.813 265.5) scale(1 1)">
    <path d="M0.375 90l-0.375-66 42.75-15.375 23.25-8.625" fill="none" stroke="var(--color-xiaohei-code-navy)" stroke-width="2.089" stroke-linecap="round" stroke-linejoin="round" vector-effect="non-scaling-stroke"/>
  </g>
  <g transform="translate(371.438 332.625) scale(1 1)">
    <path d="M0 21.375l5.625-13.875 19.125-7.5" fill="none" stroke="currentColor" stroke-width="1.5" stroke-linecap="round" stroke-linejoin="round" vector-effect="non-scaling-stroke"/>
  </g>
  <g transform="translate(380.063 343.125) scale(1 1)">
    <path d="M0 0l13.5 10.875" fill="none" stroke="var(--color-surface)" stroke-width="1.5" stroke-linecap="round" stroke-linejoin="round" vector-effect="non-scaling-stroke"/>
  </g>
  <g transform="translate(383.063 340.125) scale(1 1)">
    <path d="M0 4.5l10.875-4.5" fill="none" stroke="var(--color-surface)" stroke-width="1.5" stroke-linecap="round" stroke-linejoin="round" vector-effect="non-scaling-stroke"/>
  </g>
  <g transform="translate(395.438 355.875) scale(1.5 1)">
    <path d="M0 0l0 22.5" fill="none" stroke="var(--color-surface)" stroke-width="1.5" stroke-linecap="round" stroke-linejoin="round" vector-effect="non-scaling-stroke"/>
  </g>
  <g transform="translate(388.313 369) scale(1.407 1)">
    <path d="M0 0l0 12.375" fill="none" stroke="var(--color-surface)" stroke-width="1.407" stroke-linecap="round" stroke-linejoin="round" vector-effect="non-scaling-stroke"/>
  </g>
  <g transform="translate(433.313 277.5) scale(1 1)">
    <path d="M0 95.25l0-55.5 97.5-39.75 0 29.625" fill="none" stroke="var(--color-xiaohei-code-navy)" stroke-width="2.089" stroke-linecap="round" stroke-linejoin="round" vector-effect="non-scaling-stroke"/>
  </g>
  <g transform="translate(543.188 339.75) scale(1 1)">
    <path d="M0 20.625l0.375-18.75 24.75-1.875" fill="none" stroke="currentColor" stroke-width="1.5" stroke-linecap="round" stroke-linejoin="round" vector-effect="non-scaling-stroke"/>
  </g>
  <g transform="translate(547.313 343.5) scale(1 1)">
    <path d="M9 5.25l-9-5.25 25.5 13.125 15.375-0.75" fill="none" stroke="var(--color-surface)" stroke-width="1.5" stroke-linecap="round" stroke-linejoin="round" vector-effect="non-scaling-stroke"/>
  </g>
  <g transform="translate(563.438 354) scale(1.5 1)">
    <path d="M0.375 0l-0.375 18.75" fill="none" stroke="var(--color-surface)" stroke-width="1.5" stroke-linecap="round" stroke-linejoin="round" vector-effect="non-scaling-stroke"/>
  </g>
  <g transform="translate(565.313 352.5) scale(1 1)">
    <path d="M6.75 0l5.25 0 1.125 10.5-6.375 0.75 0-11.25-6.75 3.375" fill="none" stroke="var(--color-surface)" stroke-width="1.5" stroke-linecap="round" stroke-linejoin="round" vector-effect="non-scaling-stroke"/>
  </g>
  <g transform="translate(569.813 341.25) scale(1 1)">
    <path d="M0 0c0 0 19.125 9 18.375 10.5l0.375 9.375" fill="none" stroke="var(--color-surface)" stroke-width="1.5" stroke-linecap="round" stroke-linejoin="round" vector-effect="non-scaling-stroke"/>
  </g>
  <g transform="translate(572.813 325.5) scale(1 1)">
    <path d="M21 0.375l8.625 1.875-19.5 7.5-10.125-3.75 18-6" fill="none" stroke="var(--color-surface)" stroke-width="1.5" stroke-linecap="round" stroke-linejoin="round" vector-effect="non-scaling-stroke"/>
  </g>
  <g transform="translate(582.188 328.125) scale(1 1)">
    <path d="M24.75 0l-19.875 9.375 1.5 6-0.375 1.125-6-3 0.75-5.25" fill="none" stroke="var(--color-surface)" stroke-width="1.5" stroke-linecap="round" stroke-linejoin="round" vector-effect="non-scaling-stroke"/>
  </g>
  <g transform="translate(588.563 337.5) scale(1 1)">
    <path d="M0 0l10.875 3.375" fill="none" stroke="var(--color-surface)" stroke-width="1.5" stroke-linecap="round" stroke-linejoin="round" vector-effect="non-scaling-stroke"/>
  </g>
  <g transform="translate(571.688 333.375) scale(1.5 1)">
    <path d="M0.375 0l-0.375 6.75" fill="none" stroke="var(--color-surface)" stroke-width="1.5" stroke-linecap="round" stroke-linejoin="round" vector-effect="non-scaling-stroke"/>
  </g>
  <g transform="translate(599.438 342.75) scale(1.5 1)">
    <path d="M0 0l0.375 12.75" fill="none" stroke="var(--color-surface)" stroke-width="1.5" stroke-linecap="round" stroke-linejoin="round" vector-effect="non-scaling-stroke"/>
  </g>
  <g transform="translate(599.813 328.125) scale(1 1)">
    <path d="M6.75 0l13.125 4.125-19.875 7.875" fill="none" stroke="var(--color-surface)" stroke-width="1.5" stroke-linecap="round" stroke-linejoin="round" vector-effect="non-scaling-stroke"/>
  </g>
  <g transform="translate(621.563 333.375) scale(1.5 1)">
    <path d="M0 0l0 11.25" fill="none" stroke="var(--color-surface)" stroke-width="1.5" stroke-linecap="round" stroke-linejoin="round" vector-effect="non-scaling-stroke"/>
  </g>
  <g transform="translate(494.813 277.125) scale(1 1)">
    <path d="M0 0l18.375 6" fill="none" stroke="var(--color-surface)" stroke-width="1.407" stroke-linecap="round" stroke-linejoin="round" vector-effect="non-scaling-stroke"/>
  </g>
  <g transform="translate(497.063 283.875) scale(1 1)">
    <path d="M0 0l9.75 3.375" fill="none" stroke="var(--color-surface)" stroke-width="1.407" stroke-linecap="round" stroke-linejoin="round" vector-effect="non-scaling-stroke"/>
  </g>
  <g transform="translate(464.063 270.75) scale(1 1)">
    <path d="M0 0l5.25 1.5" fill="none" stroke="var(--color-surface)" stroke-width="1.407" stroke-linecap="round" stroke-linejoin="round" vector-effect="non-scaling-stroke"/>
  </g>
  <g transform="translate(464.063 265.5) scale(1 1)">
    <path d="M0 0l7.125 2.625" fill="none" stroke="var(--color-surface)" stroke-width="1.407" stroke-linecap="round" stroke-linejoin="round" vector-effect="non-scaling-stroke"/>
  </g>
  <g transform="translate(496.313 250.875) scale(1 1)">
    <path d="M0 0l9 10.5" fill="none" stroke="var(--color-surface)" stroke-width="1.407" stroke-linecap="round" stroke-linejoin="round" vector-effect="non-scaling-stroke"/>
  </g>
  <g transform="translate(509.813 252) scale(1 1)">
    <path d="M0 0l6 9.37502" fill="none" stroke="var(--color-surface)" stroke-width="1.407" stroke-linecap="round" stroke-linejoin="round" vector-effect="non-scaling-stroke"/>
  </g>
  <g transform="translate(497.063 250.875) scale(1 1)">
    <path d="M0 0l25.875 2.625 5.625 6.75-6.75 4.125-14.25-1.5" fill="none" stroke="var(--color-surface)" stroke-width="1.407" stroke-linecap="round" stroke-linejoin="round" vector-effect="non-scaling-stroke"/>
  </g>
  <g transform="translate(525.188 252.70906) scale(1 1)">
    <path d="M0 10.54102c0.375-1.5 16.875-11.25002 18.375-10.5 3 1.50002 18.75 13.5 19.5 16.125" fill="none" stroke="var(--color-surface)" stroke-width="1.407" stroke-linecap="round" stroke-linejoin="round" vector-effect="non-scaling-stroke"/>
  </g>
  <g transform="translate(527.063 267.75) scale(1 1)">
    <path d="M0 0l17.625 12.75 1.125 1.125 0 8.625" fill="none" stroke="var(--color-surface)" stroke-width="1.407" stroke-linecap="round" stroke-linejoin="round" vector-effect="non-scaling-stroke"/>
  </g>
  <g transform="translate(543.563 271.125) scale(1 1)">
    <path d="M0 4.125l7.5-4.125 5.25 4.125-9 5.625" fill="none" stroke="var(--color-surface)" stroke-width="1.407" stroke-linecap="round" stroke-linejoin="round" vector-effect="non-scaling-stroke"/>
  </g>
  <g transform="translate(543.563 272.25) scale(1 1)">
    <path d="M18 0l-4.5 3-13.5 6.75" fill="none" stroke="var(--color-surface)" stroke-width="1.407" stroke-linecap="round" stroke-linejoin="round" vector-effect="non-scaling-stroke"/>
  </g>
  <g transform="translate(563.813 273.375) scale(1.407 1)">
    <path d="M0 0l0.375 5.25" fill="none" stroke="var(--color-surface)" stroke-width="1.407" stroke-linecap="round" stroke-linejoin="round" vector-effect="non-scaling-stroke"/>
  </g>
  <g transform="translate(522.188 267.75) scale(1.407 1)">
    <path d="M0.75 0l-0.75 10.875" fill="none" stroke="var(--color-surface)" stroke-width="1.407" stroke-linecap="round" stroke-linejoin="round" vector-effect="non-scaling-stroke"/>
  </g>
  <g transform="translate(503.438 264.75) scale(1.25067 1)">
    <path d="M1.125 0l-1.125 10.5" fill="none" stroke="var(--color-surface)" stroke-width="1.407" stroke-linecap="round" stroke-linejoin="round" vector-effect="non-scaling-stroke"/>
  </g>
  <g transform="translate(531.188 289.5) scale(1 1)">
    <path d="M0 0l22.125 8.625" fill="none" stroke="var(--color-surface)" stroke-width="1.407" stroke-linecap="round" stroke-linejoin="round" vector-effect="non-scaling-stroke"/>
  </g>
  <g transform="translate(532.313 296.25) scale(1 1)">
    <path d="M0 0l11.25 3.375" fill="none" stroke="var(--color-surface)" stroke-width="1.407" stroke-linecap="round" stroke-linejoin="round" vector-effect="non-scaling-stroke"/>
  </g>
  <g transform="translate(490.313 251.25) scale(1 1)">
    <path d="M3 0l-3 12" fill="none" stroke="var(--color-surface)" stroke-width="1.407" stroke-linecap="round" stroke-linejoin="round" vector-effect="non-scaling-stroke"/>
  </g>
  <g transform="translate(554.813 268.5) scale(1 1)">
    <path d="M26.25 0l-26.25 18.75 8.625 3" fill="none" stroke="var(--color-surface)" stroke-width="1.5" stroke-linecap="round" stroke-linejoin="round" vector-effect="non-scaling-stroke"/>
  </g>
  <g transform="translate(555.563 289.875) scale(1.5 1)">
    <path d="M0 0l0 4.875" fill="none" stroke="var(--color-surface)" stroke-width="1.5" stroke-linecap="round" stroke-linejoin="round" vector-effect="non-scaling-stroke"/>
  </g>
  <g transform="translate(571.313 268.5) scale(1 1)">
    <path d="M14.25 0l17.625 4.875-1.875 3-22.875 18.375-7.125-1.875" fill="none" stroke="var(--color-surface)" stroke-width="1.5" stroke-linecap="round" stroke-linejoin="round" vector-effect="non-scaling-stroke"/>
  </g>
  <g transform="translate(605.438 274.875) scale(1 1)">
    <path d="M0 0l7.5 1.875" fill="none" stroke="var(--color-surface)" stroke-width="1.5" stroke-linecap="round" stroke-linejoin="round" vector-effect="non-scaling-stroke"/>
  </g>
  <g transform="translate(578.438 295.5) scale(1 1)">
    <path d="M12.375 12l-1.875-9.375-10.5-2.625" fill="none" stroke="var(--color-surface)" stroke-width="1.5" stroke-linecap="round" stroke-linejoin="round" vector-effect="non-scaling-stroke"/>
  </g>
  <g transform="translate(569.813 296.25) scale(1 1)">
    <path d="M6 0l0.75 4.875-6.75-1.5" fill="none" stroke="var(--color-surface)" stroke-width="1.5" stroke-linecap="round" stroke-linejoin="round" vector-effect="non-scaling-stroke"/>
  </g>
  <g transform="translate(590.438 282) scale(1 1)">
    <path d="M0 14.625l21-14.625" fill="none" stroke="var(--color-surface)" stroke-width="1.5" stroke-linecap="round" stroke-linejoin="round" vector-effect="non-scaling-stroke"/>
  </g>
  <g transform="translate(617.063 279.75) scale(1.5 1)">
    <path d="M0 0l0.75 8.625" fill="none" stroke="var(--color-surface)" stroke-width="1.5" stroke-linecap="round" stroke-linejoin="round" vector-effect="non-scaling-stroke"/>
  </g>
  <g transform="translate(606.188 279.75) scale(1 1)">
    <path d="M0.375 18.75l30.75-18.75 25.875 5.625-17.25 11.25-9.75 6.375-30-4.5 0.375 0z" fill="none" stroke="var(--color-surface)" stroke-width="1.5" stroke-linecap="round" stroke-linejoin="round" vector-effect="non-scaling-stroke"/>
  </g>
  <g transform="translate(606.563 298.5) scale(1.5 1)">
    <path d="M0 0l0 2.625 0 13.5" fill="none" stroke="var(--color-surface)" stroke-width="1.5" stroke-linecap="round" stroke-linejoin="round" vector-effect="non-scaling-stroke"/>
  </g>
  <g transform="translate(635.438 308.625) scale(1.5 1)">
    <path d="M0 0l0.75 15" fill="none" stroke="var(--color-surface)" stroke-width="1.5" stroke-linecap="round" stroke-linejoin="round" vector-effect="non-scaling-stroke"/>
  </g>
  <g transform="translate(631.313 284.25) scale(1 1)">
    <path d="M0 0l30 5.625" fill="none" stroke="var(--color-surface)" stroke-width="1.5" stroke-linecap="round" stroke-linejoin="round" vector-effect="non-scaling-stroke"/>
  </g>
  <g transform="translate(614.063 294.75) scale(1 1)">
    <path d="M0 0l31.875 6 1.125 10.5 8.25-5.25-1.125-10.125" fill="none" stroke="var(--color-surface)" stroke-width="1.5" stroke-linecap="round" stroke-linejoin="round" vector-effect="non-scaling-stroke"/>
  </g>
  <g transform="translate(665.438 289.875) scale(1.5 1)">
    <path d="M0 0l0.375 6.75" fill="none" stroke="var(--color-surface)" stroke-width="1.5" stroke-linecap="round" stroke-linejoin="round" vector-effect="non-scaling-stroke"/>
  </g>
  <g transform="translate(636.563 301.125) scale(1 1)">
    <path d="M0 4.5l7.875-4.5" fill="none" stroke="var(--color-surface)" stroke-width="1.5" stroke-linecap="round" stroke-linejoin="round" vector-effect="non-scaling-stroke"/>
  </g>
  <g transform="translate(659.438 288.75) scale(1 1)">
    <path d="M0 3.375l3.375-3.375" fill="none" stroke="var(--color-surface)" stroke-width="1.5" stroke-linecap="round" stroke-linejoin="round" vector-effect="non-scaling-stroke"/>
  </g>
  <g transform="translate(241.313 333.75) scale(1.5 1.5)">
    <path d="" fill="none" stroke="var(--color-surface)" stroke-width="1.5" stroke-linecap="round" stroke-linejoin="round" vector-effect="non-scaling-stroke"/>
  </g>
  <g transform="translate(234.563 317.625) scale(1 1)">
    <path d="M0 12.375c31.5 14.25 140.625 60 168 71.25 37.125 15.75 50.25 26.25 72 18.75l158.25-74.625c5.625-2.625 10.875-9.75-2.25-14.625l-41.25-13.125" fill="none" stroke="var(--color-surface)" stroke-width="1.5" stroke-linecap="round" stroke-linejoin="round" vector-effect="non-scaling-stroke"/>
  </g>
  <g transform="translate(285.96101 375.411) scale(1 1)">
    <path d="M6.35184 13.83911l-4.5-1.875c-1.875-0.75-3-9.375 0-11.625 2.625-1.875 16.5 4.5 17.25 7.5 0.375 3.75 0 10.875-1.875 9.75l-1.5-0.75c-0.375-4.5 1.125-7.5-0.375-8.25-4.5-2.625-7.875-1.875-8.25 1.5 0 13.875-1.5 21.375 4.875 27 10.5 7.125 42.375 19.5 50.625 21 9 1.875 9.75-3 10.125-13.875l0-7.125c-1.5-1.5-4.875-3.375-7.875-1.875 1.5-6 2.625-6 6.75-4.125l10.875 5.25c2.625 0.75 2.625 3 2.25 9 0 2.25-2.25 3-4.875 2.25l-6.75-2.25" fill="none" stroke="var(--color-surface)" stroke-width="1.407" stroke-linecap="round" stroke-linejoin="round" vector-effect="non-scaling-stroke"/>
  </g>
  <g transform="translate(299.948 387) scale(0.99999 1.00001)">
    <path d="M50.48935 23.625c-0.375 7.5 0 10.875-6 9-11.625-4.875-41.625-16.125-43.5-20.625-1.5-3.75-1.125-7.5 0-12" fill="none" stroke="var(--color-surface)" stroke-width="1.407" stroke-linecap="round" stroke-linejoin="round" vector-effect="non-scaling-stroke"/>
  </g>
  <g transform="translate(470.853 293.25) scale(1 1)">
    <path d="M0.71002 81.75c-1.125-11.25-0.75-42.75 0-43.5 0.75-1.5 60-22.5 96.375-38.25l0 46.5" fill="none" stroke="var(--color-surface)" stroke-width="1.407" stroke-linecap="round" stroke-linejoin="round" vector-effect="non-scaling-stroke"/>
  </g>
  <g transform="translate(415.688 366.75) scale(1 1)">
    <path d="M55.875 10.5l-24-10.5-31.875 13.5 10.875 5.625" fill="none" stroke="var(--color-surface)" stroke-width="1.407" stroke-linecap="round" stroke-linejoin="round" vector-effect="non-scaling-stroke"/>
  </g>
  <g transform="translate(427.688 390.375) scale(1 1)">
    <path d="M0 1.125l2.625-1.125 17.25 9" fill="none" stroke="var(--color-surface)" stroke-width="1.407" stroke-linecap="round" stroke-linejoin="round" vector-effect="non-scaling-stroke"/>
  </g>
  <g transform="translate(401.438 345) scale(1 1)">
    <path d="M0 33.375l0-16.875 31.125-16.5" fill="none" stroke="currentColor" stroke-width="1.5" stroke-linecap="round" stroke-linejoin="round" vector-effect="non-scaling-stroke"/>
  </g>
  <g transform="translate(404.063 361.875) scale(1 1)">
    <path d="M0 0l21.375 11.625" fill="none" stroke="var(--color-surface)" stroke-width="1.407" stroke-linecap="round" stroke-linejoin="round" vector-effect="non-scaling-stroke"/>
  </g>
  <g transform="translate(410.438 354.75) scale(1 1)">
    <path d="M0 11.25l21.75-11.25" fill="none" stroke="var(--color-surface)" stroke-width="1.407" stroke-linecap="round" stroke-linejoin="round" vector-effect="non-scaling-stroke"/>
  </g>
  <g transform="translate(428.813 390.375) scale(1 1)">
    <path d="M0.375 0l-0.375 9 6.375 3.375 0.375-7.5" fill="none" stroke="var(--color-surface)" stroke-width="1.407" stroke-linecap="round" stroke-linejoin="round" vector-effect="non-scaling-stroke"/>
  </g>
  <g transform="translate(446.813 384.75) scale(1 1)">
    <path d="M0 15l33.75-15 2.25 3 0 24.375" fill="none" stroke="var(--color-surface)" stroke-width="1.407" stroke-linecap="round" stroke-linejoin="round" vector-effect="non-scaling-stroke"/>
  </g>
  <g transform="translate(462.563 393.75) scale(1 1)">
    <path d="M0 3l0.375 8.625 6.375-3.375-0.75-8.25" fill="none" stroke="var(--color-surface)" stroke-width="1.407" stroke-linecap="round" stroke-linejoin="round" vector-effect="non-scaling-stroke"/>
  </g>
  <g transform="translate(429.188 375) scale(1 1)">
    <path d="M0 15l31.875-15" fill="none" stroke="var(--color-surface)" stroke-width="1.407" stroke-linecap="round" stroke-linejoin="round" vector-effect="non-scaling-stroke"/>
  </g>
  <g transform="translate(450.563 403.5) scale(1.407 1)">
    <path d="M0 0l0.375 14.25" fill="none" stroke="var(--color-surface)" stroke-width="1.407" stroke-linecap="round" stroke-linejoin="round" vector-effect="non-scaling-stroke"/>
  </g>
  <g transform="translate(504.188 356.25) scale(1 1)">
    <path d="M0 26.25l1.125-21.75 21.75-4.5 12 4.5-20.625 4.5-11.25-3.75" fill="none" stroke="currentColor" stroke-width="1.5" stroke-linecap="round" stroke-linejoin="round" vector-effect="non-scaling-stroke"/>
  </g>
  <g transform="translate(513.188 366) scale(1 1)">
    <path d="M0.75 0l-0.75 9.75 6 3 1.5-9-4.875-3" fill="none" stroke="var(--color-surface)" stroke-width="1.407" stroke-linecap="round" stroke-linejoin="round" vector-effect="non-scaling-stroke"/>
  </g>
  <g transform="translate(532.313 361.875) scale(1 1)">
    <path d="M7.125 0l13.875 5.25-21 5.625" fill="none" stroke="var(--color-surface)" stroke-width="1.407" stroke-linecap="round" stroke-linejoin="round" vector-effect="non-scaling-stroke"/>
  </g>
  <g transform="translate(554.438 370.125) scale(1.407 1)">
    <path d="M0.375 0l-0.375 8.25" fill="none" stroke="var(--color-surface)" stroke-width="1.407" stroke-linecap="round" stroke-linejoin="round" vector-effect="non-scaling-stroke"/>
  </g>
  <g transform="translate(530.438 376.5) scale(1.407 1)">
    <path d="M0 0l0.375 13.125" fill="none" stroke="var(--color-surface)" stroke-width="1.407" stroke-linecap="round" stroke-linejoin="round" vector-effect="non-scaling-stroke"/>
  </g>
  <g transform="translate(484.688 379.125) scale(1 1)">
    <path d="M0 13.125l3.375-13.125 14.25 3 19.5 10.875" fill="none" stroke="currentColor" stroke-width="1.5" stroke-linecap="round" stroke-linejoin="round" vector-effect="non-scaling-stroke"/>
  </g>
  <g transform="translate(495.563 391.5) scale(1 1.407)">
    <path d="M0 0l11.25 0.75" fill="none" stroke="var(--color-surface)" stroke-width="1.407" stroke-linecap="round" stroke-linejoin="round" vector-effect="non-scaling-stroke"/>
  </g>
  <g transform="translate(503.813 385.875) scale(1 1)">
    <path d="M0 0l3.375 5.625 0 7.875" fill="none" stroke="var(--color-surface)" stroke-width="1.407" stroke-linecap="round" stroke-linejoin="round" vector-effect="non-scaling-stroke"/>
  </g>
  <g transform="translate(491.438 382.875) scale(1 1)">
    <path d="M0 0l4.5 7.5-3.375 18.75" fill="none" stroke="var(--color-surface)" stroke-width="1.407" stroke-linecap="round" stroke-linejoin="round" vector-effect="non-scaling-stroke"/>
  </g>
  <g transform="translate(398.438 381) scale(1 1)">
    <path d="M0 0l8.25 4.875 7.5-1.875-1.125 18" fill="none" stroke="var(--color-surface)" stroke-width="1.407" stroke-linecap="round" stroke-linejoin="round" vector-effect="non-scaling-stroke"/>
  </g>
  <g transform="translate(405.938 387.75) scale(1.407 1)">
    <path d="M0 0l0 11.625" fill="none" stroke="var(--color-surface)" stroke-width="1.407" stroke-linecap="round" stroke-linejoin="round" vector-effect="non-scaling-stroke"/>
  </g>
  <g transform="translate(382.688 381) scale(1 1)">
    <path d="M0 8.25l12.375-8.25" fill="none" stroke="var(--color-surface)" stroke-width="1.407" stroke-linecap="round" stroke-linejoin="round" vector-effect="non-scaling-stroke"/>
  </g>
  <g transform="translate(397.313 374.625) scale(1 1)">
    <path d="M0 3.75l16.875-3.75 7.125 2.25" fill="none" stroke="var(--color-surface)" stroke-width="1.407" stroke-linecap="round" stroke-linejoin="round" vector-effect="non-scaling-stroke"/>
  </g>
  <g transform="translate(471.563 89.625) scale(1 1)">
    <path d="M0 82.5l34.5-82.5" fill="none" stroke="var(--color-surface)" stroke-width="1.407" stroke-linecap="round" stroke-linejoin="round" vector-effect="non-scaling-stroke"/>
  </g>
  <g transform="translate(668.438 95.73) scale(1.00001 1.00004)">
    <path d="M0 5.52051l0.75-2.25c1.125-3 3.375-3.75 7.125-3l18.375 3.75c4.5 1.5 5.625 5.25 4.5 8.625l-4.125-0.75c2.25-5.625-1.875-6-12-7.5-4.875-1.125-10.5-3.75-12 1.5l-2.625-0.375z" fill="var(--color-xiaohei-code-navy)"/>
  </g>
  <g transform="translate(672.563 98.246) scale(1 0.99995)">
    <path d="M0 1.50441c0.375-3.75 15.75 0.375 18.375 3 0.375 0.375 1.125 3.75 1.875 4.5" fill="none" stroke="var(--color-surface)" stroke-width="1.407" stroke-linecap="round" stroke-linejoin="round" vector-effect="non-scaling-stroke"/>
  </g>
  <g transform="translate(672.563 99) scale(1 1)">
    <path d="M0.375 0l9 0.75 10.875 7.5-20.25-4.5 0.375-3.75z" fill="var(--color-xiaohei-code-navy)"/>
  </g>
  <g transform="translate(655.313 381.27501) scale(1 0.99999)">
    <path d="M0 18.10007c0.375-4.875 0-3.75 21-15.375 5.625-3 7.125-4.5 22.5 0.75 5.25 1.5 9 1.5 9.75 13.125 0 13.5-7.875 17.625-26.625 27.375-3.75 1.875-7.5-0.75-22.125-5.25-4.125-1.5-4.125-4.125-4.5-20.625z" fill="#EC4824"/>
  </g>
  <g transform="translate(659.063 399) scale(1 1)">
    <path d="M0 0l17.625 4.5" fill="none" stroke="var(--color-surface)" stroke-width="1.407" stroke-linecap="round" stroke-linejoin="round" vector-effect="non-scaling-stroke"/>
  </g>
  <g transform="translate(682.313 391.875) scale(1 1)">
    <path d="M0 10.875c6.75-3 16.5-6.75 22.5-10.875" fill="none" stroke="#EC4824" stroke-width="1.407" stroke-linecap="round" stroke-linejoin="round" vector-effect="non-scaling-stroke"/>
  </g>
  <g transform="translate(679.688 406.875) scale(1.407 1)">
    <path d="M0 0l0 14.625" fill="none" stroke="var(--color-surface)" stroke-width="1.407" stroke-linecap="round" stroke-linejoin="round" vector-effect="non-scaling-stroke"/>
  </g>
  <g transform="translate(663.188 400.875) scale(1 1)">
    <path d="M0 0c0.375 4.125 0 4.125 6 5.625l0.375-3" fill="none" stroke="var(--color-surface)" stroke-width="1.407" stroke-linecap="round" stroke-linejoin="round" vector-effect="non-scaling-stroke"/>
  </g>
  <g transform="translate(326.438 110.25) scale(1 1)">
    <path d="M32.625 0c3.75 2.25 10.125 5.625 20.625 4.5 0 3 4.125 18.75 11.25 26.25 4.5 5.25 12 13.5 19.5 16.5l10.5 3.75c4.5 3 5.625 5.25 4.125 9.75-1.5 3.75-6 3.75-9.375 3-4.875-3.75-6.375-3-9.75-0.75-25.125-5.625-35.625-13.875-39.375-18.75l-7.5 17.625c-12.75-7.125-29.25-30.375-31.875-44.625l-0.75-3.75 32.625-13.5z" fill="var(--color-surface)"/>
  </g>
  <g transform="translate(256.56101 44.625) scale(1 1)">
    <path d="M170.00183 120c-3.75-5.625-8.625-5.25-16.5-10.5-15.375-10.125-20.625-17.625-30-42 17.25 0 22.875-15 22.875-20.625 0.375-7.125 3.375-12.75 0.375-22.5-3-10.875-16.125-24.375-36-24.375-17.25 0.375-24.75 9.75-33 22.5-3 4.125-6.75 5.625-10.5 7.875-31.5 19.125-55.875 54-64.5 98.25-8.25 49.5 4.5 66.75 6.375 127.125l35.25-13.5c1.875-22.125 4.125-47.625 8.25-46.875 3.375 0.375 8.625 19.5 9.375 41.25l31.875-15c0-16.5-0.75-39 0-48.375 0.375-5.625 3.75-18.75 3.75-21-8.25-1.875-19.125-4.125-28.875-10.875-12-7.875-23.25-22.5-28.125-39.75l1.125-0.375c12.375 32.625 30 41.25 58.875 49.125 8.25 1.5 15.375 6 21.375 4.5 4.875-1.125 6.75-6 3.375-10.5-2.25-3.375-7.125-6.75-9.375-7.125-24-12.375-37.875-22.875-46.125-54.375l1.125-0.37499c6 21.37499 11.625 30.74999 31.5 44.99999l7.5-18.75 2.625-15 1.125 0-3.75 15.75c9.375 9.375 20.625 13.5 39.375 19.125 4.125-3.75 7.875-2.25 10.125 0 2.25 2.625 10.875 3.375 11.25-4.5 0-1.5 0-3-0.75-4.125z" fill="currentColor"/>
  </g>
  <g transform="translate(359.813 89.625) scale(1 1.00002)">
    <path d="M0 21c9.375 5.625 21.75 7.5 31.875 0.375 5.625-3.75 9.75-12 10.5-21.375" fill="none" stroke="var(--color-surface)" stroke-width="1.5" stroke-linecap="round" stroke-linejoin="round" vector-effect="non-scaling-stroke"/>
  </g>
  <g transform="translate(368.438 92.521) scale(0.99996 0.99993)">
    <path d="M0 1.97869c0-2.25 3.75-3 4.5 0 0.375 2.625-4.125 4.5-4.5 0z" fill="var(--color-surface)"/>
  </g>
  <g transform="translate(390.563 95.951) scale(1 1.00004)">
    <path d="M0 2.29922c0.375-3 3.75-3 4.125-0.375-0.375 3-4.125 3.75-4.125 0.375z" fill="var(--color-surface)"/>
  </g>
</svg>
